<mxfile host="www.draw.io" modified="2019-11-05T08:39:42.412Z" agent="Mozilla/5.0 (Windows NT 10.0; Win64; x64) AppleWebKit/537.36 (KHTML, like Gecko) Chrome/77.0.3865.120 Safari/537.36" etag="HmiFzCz7AqRyM1kvc2g7" version="12.2.0" type="github" pages="1">
  <diagram id="4-ExnRH2nlpV1U6-dy7Q" name="Page-1">
    <mxGraphModel dx="1163" dy="669" grid="1" gridSize="10" guides="1" tooltips="1" connect="1" arrows="1" fold="1" page="1" pageScale="1" pageWidth="827" pageHeight="1169" math="0" shadow="0">
      <root>
        <mxCell id="0"/>
        <mxCell id="1" parent="0"/>
        <object label="&lt;div style=&quot;text-align: left&quot;&gt;Margintrade System&lt;/div&gt;&lt;div style=&quot;text-align: left&quot;&gt;[1.0]&lt;/div&gt;" placeholders="1" c4Name="Margintrade System" c4Type="ExecutionEnvironment" c4Application="1.0" id="3FadowJ8ZwP5fmZhmTym-16">
          <mxCell style="rounded=1;whiteSpace=wrap;html=1;labelBackgroundColor=none;fillColor=#ffffff;fontColor=#000000;align=left;arcSize=3;strokeColor=#000000;verticalAlign=top;dashed=1;" parent="1" vertex="1">
            <mxGeometry x="207" y="60" width="403" height="900" as="geometry"/>
            <C4ExecutionEnvironment as="c4"/>
          </mxCell>
        </object>
        <mxCell id="3FadowJ8ZwP5fmZhmTym-4" value="" style="group;rounded=0;labelBackgroundColor=none;fillColor=none;fontColor=#59759E;align=center;html=1;" parent="1" vertex="1" connectable="0">
          <mxGeometry x="20" y="29" width="160" height="180" as="geometry"/>
          <C4Person as="c4"/>
        </mxCell>
        <object label="User&lt;div&gt;[Person]&lt;/div&gt;&lt;div&gt;&lt;br&gt;&lt;/div&gt;&lt;div&gt;user accessing margin trade system&lt;/div&gt;" placeholders="1" c4Name="User" c4Type="body" c4Description="user accessing margin trade system" id="3FadowJ8ZwP5fmZhmTym-5">
          <mxCell style="rounded=1;whiteSpace=wrap;html=1;labelBackgroundColor=none;fillColor=#7093C7;fontColor=#FFFFFF;align=center;arcSize=33;strokeColor=#6c8ebf;" parent="3FadowJ8ZwP5fmZhmTym-4" vertex="1">
            <mxGeometry y="70" width="160" height="110" as="geometry"/>
            <C4Person as="c4"/>
          </mxCell>
        </object>
        <mxCell id="3FadowJ8ZwP5fmZhmTym-6" value="" style="ellipse;whiteSpace=wrap;html=1;aspect=fixed;rounded=0;labelBackgroundColor=none;fillColor=#7093C7;fontSize=12;fontColor=#000000;align=center;strokeColor=#6c8ebf;" parent="3FadowJ8ZwP5fmZhmTym-4" vertex="1">
          <mxGeometry x="40" width="80" height="80" as="geometry"/>
          <C4Person as="c4"/>
        </mxCell>
        <object label="&lt;span&gt;Margintrade Server&lt;/span&gt;&lt;div&gt;[Component:&amp;nbsp;&lt;span&gt;elixir&lt;/span&gt;&lt;span&gt;]&lt;/span&gt;&lt;/div&gt;&lt;div&gt;&lt;br&gt;&lt;/div&gt;&lt;div&gt;websocket server providing commands to margin trade&lt;/div&gt;" placeholders="1" c4Name="Margintrade Server" c4Type="Component" c4Technology="elixir" c4Description="websocket server providing commands to margin trade" id="3FadowJ8ZwP5fmZhmTym-7">
          <mxCell style="rounded=1;whiteSpace=wrap;html=1;labelBackgroundColor=none;fillColor=#dae8fc;fontColor=#000000;align=center;arcSize=7;strokeColor=#6c8ebf;" parent="1" vertex="1">
            <mxGeometry x="332.5" y="277" width="160" height="110" as="geometry"/>
            <C4Component as="c4"/>
          </mxCell>
        </object>
        <object label="&lt;span&gt;Margintrade UI&lt;/span&gt;&lt;div&gt;[Component:&amp;nbsp;&lt;span&gt;ember&lt;/span&gt;&lt;span&gt;]&lt;/span&gt;&lt;/div&gt;&lt;div&gt;&lt;br&gt;&lt;/div&gt;&lt;div&gt;spa providing user interface&lt;/div&gt;" placeholders="1" c4Name="Margintrade UI" c4Type="Component" c4Technology="ember" c4Description="spa providing user interface" id="3FadowJ8ZwP5fmZhmTym-9">
          <mxCell style="rounded=1;whiteSpace=wrap;html=1;labelBackgroundColor=none;fillColor=#dae8fc;fontColor=#000000;align=center;arcSize=7;strokeColor=#6c8ebf;" parent="1" vertex="1">
            <mxGeometry x="332.5" y="100" width="160" height="110" as="geometry"/>
            <C4Component as="c4"/>
          </mxCell>
        </object>
        <object label="&lt;span&gt;Margintrade Listener Robot&lt;/span&gt;&lt;div&gt;[Component:&amp;nbsp;&lt;span&gt;dotnet core&lt;/span&gt;&lt;span&gt;]&lt;/span&gt;&lt;/div&gt;&lt;div&gt;&lt;br&gt;&lt;/div&gt;&lt;div&gt;receiving orders messages, calculate leverage and send to Alphapoint&lt;/div&gt;" placeholders="1" c4Name="Margintrade Listener Robot" c4Type="Component" c4Technology="dotnet core" c4Description="receiving orders messages, calculate leverage and send to Alphapoint" id="3FadowJ8ZwP5fmZhmTym-12">
          <mxCell style="rounded=1;whiteSpace=wrap;html=1;labelBackgroundColor=none;fillColor=#dae8fc;fontColor=#000000;align=center;arcSize=7;strokeColor=#6c8ebf;" parent="1" vertex="1">
            <mxGeometry x="420" y="670" width="160" height="110" as="geometry"/>
            <C4Component as="c4"/>
          </mxCell>
        </object>
        <object label="&lt;span&gt;Margintrade Risk Robot&lt;/span&gt;&lt;div&gt;[Component:&amp;nbsp;&lt;span&gt;dotnet core&lt;/span&gt;&lt;span&gt;]&lt;/span&gt;&lt;/div&gt;&lt;div&gt;&lt;br&gt;&lt;/div&gt;&lt;div&gt;listening marketdata events and execute trade of users in margin trade&lt;/div&gt;" placeholders="1" c4Name="Margintrade Risk Robot" c4Type="Component" c4Technology="dotnet core" c4Description="listening marketdata events and execute trade of users in margin trade" id="3FadowJ8ZwP5fmZhmTym-13">
          <mxCell style="rounded=1;whiteSpace=wrap;html=1;labelBackgroundColor=none;fillColor=#dae8fc;fontColor=#000000;align=center;arcSize=7;strokeColor=#6c8ebf;" parent="1" vertex="1">
            <mxGeometry x="240" y="670" width="160" height="110" as="geometry"/>
            <C4Component as="c4"/>
          </mxCell>
        </object>
        <object label="&lt;span&gt;Alphapoint&lt;/span&gt;&lt;div&gt;[Component:&amp;nbsp;&lt;span&gt;OMS&lt;/span&gt;&lt;span&gt;]&lt;/span&gt;&lt;/div&gt;&lt;div&gt;&lt;br&gt;&lt;/div&gt;&lt;div&gt;&lt;/div&gt;" placeholders="1" c4Name="Alphapoint" c4Type="Component" c4Technology="OMS" c4Description="" id="3FadowJ8ZwP5fmZhmTym-14">
          <mxCell style="rounded=1;whiteSpace=wrap;html=1;labelBackgroundColor=none;fillColor=#E8E8E8;fontColor=#333333;align=center;arcSize=7;strokeColor=#666666;" parent="1" vertex="1">
            <mxGeometry x="332.5" y="1000" width="160" height="110" as="geometry"/>
            <C4Component as="c4"/>
          </mxCell>
        </object>
        <object label="&lt;div style=&quot;text-align: left&quot;&gt;&lt;div style=&quot;text-align: center&quot;&gt;&lt;b&gt;/margintrade&lt;/b&gt;&lt;/div&gt;&lt;div style=&quot;text-align: center&quot;&gt;[https]&lt;/div&gt;&lt;/div&gt;" c4Type="Relationship" c4Description="Beschreibung" c4Technology="technology" id="3FadowJ8ZwP5fmZhmTym-17">
          <mxCell style="edgeStyle=none;rounded=0;html=1;entryX=0;entryY=0.5;jettySize=auto;orthogonalLoop=1;strokeColor=#A8A8A8;strokeWidth=2;fontColor=#000000;jumpStyle=none;dashed=1;exitX=1;exitY=0.5;exitDx=0;exitDy=0;entryDx=0;entryDy=0;" parent="1" source="3FadowJ8ZwP5fmZhmTym-5" target="3FadowJ8ZwP5fmZhmTym-9" edge="1">
            <mxGeometry width="160" relative="1" as="geometry">
              <mxPoint x="160" y="290" as="sourcePoint"/>
              <mxPoint x="320" y="290" as="targetPoint"/>
              <Array as="points"/>
            </mxGeometry>
            <C4Relationship as="c4"/>
          </mxCell>
        </object>
        <object label="&lt;div style=&quot;text-align: left&quot;&gt;&lt;div style=&quot;text-align: center&quot;&gt;&lt;b&gt;Read and write &lt;br&gt;users access&lt;/b&gt;&lt;/div&gt;&lt;div style=&quot;text-align: center&quot;&gt;[tcp]&lt;/div&gt;&lt;/div&gt;" c4Type="Relationship" c4Description="Beschreibung" c4Technology="technology" id="3FadowJ8ZwP5fmZhmTym-28">
          <mxCell style="edgeStyle=none;rounded=0;html=1;entryX=0.5;entryY=0;jettySize=auto;orthogonalLoop=1;strokeColor=#A8A8A8;strokeWidth=2;fontColor=#000000;jumpStyle=none;dashed=1;exitX=0.5;exitY=1;exitDx=0;exitDy=0;entryDx=0;entryDy=0;" parent="1" source="3FadowJ8ZwP5fmZhmTym-7" target="3FadowJ8ZwP5fmZhmTym-27" edge="1">
            <mxGeometry x="-0.1111" width="160" relative="1" as="geometry">
              <mxPoint x="500" y="310" as="sourcePoint"/>
              <mxPoint x="660" y="310" as="targetPoint"/>
              <mxPoint as="offset"/>
            </mxGeometry>
            <C4Relationship as="c4"/>
          </mxCell>
        </object>
        <object label="&lt;div style=&quot;text-align: left&quot;&gt;&lt;div style=&quot;text-align: center&quot;&gt;&lt;b&gt;Send orders&lt;/b&gt;&lt;/div&gt;&lt;div style=&quot;text-align: center&quot;&gt;[http2]&lt;/div&gt;&lt;/div&gt;" c4Type="Relationship" c4Description="Beschreibung" c4Technology="technology" id="Y7Dl6s04BHCU936dO34F-1">
          <mxCell style="edgeStyle=orthogonalEdgeStyle;rounded=0;html=1;entryX=0.75;entryY=0;jettySize=auto;orthogonalLoop=1;strokeColor=#A8A8A8;strokeWidth=2;fontColor=#000000;jumpStyle=none;dashed=1;exitX=1;exitY=0.75;exitDx=0;exitDy=0;entryDx=0;entryDy=0;" edge="1" parent="1" source="3FadowJ8ZwP5fmZhmTym-7" target="3FadowJ8ZwP5fmZhmTym-12">
            <mxGeometry width="160" relative="1" as="geometry">
              <mxPoint x="490" y="370" as="sourcePoint"/>
              <mxPoint x="650" y="370" as="targetPoint"/>
            </mxGeometry>
            <C4Relationship as="c4"/>
          </mxCell>
        </object>
        <object label="&lt;div style=&quot;text-align: left&quot;&gt;&lt;div style=&quot;text-align: center&quot;&gt;&lt;b&gt;Storage orders sent&lt;/b&gt;&lt;/div&gt;&lt;div style=&quot;text-align: center&quot;&gt;[tcp]&lt;/div&gt;&lt;/div&gt;" c4Type="Relationship" c4Description="Beschreibung" c4Technology="technology" id="Y7Dl6s04BHCU936dO34F-3">
          <mxCell style="edgeStyle=orthogonalEdgeStyle;rounded=0;html=1;entryX=1;entryY=0.5;jettySize=auto;orthogonalLoop=1;strokeColor=#A8A8A8;strokeWidth=2;fontColor=#000000;jumpStyle=none;dashed=1;exitX=0.5;exitY=1;exitDx=0;exitDy=0;entryDx=0;entryDy=0;" edge="1" parent="1" source="3FadowJ8ZwP5fmZhmTym-12" target="Y7Dl6s04BHCU936dO34F-2">
            <mxGeometry x="-0.432" width="160" relative="1" as="geometry">
              <mxPoint x="530" y="810" as="sourcePoint"/>
              <mxPoint x="690" y="810" as="targetPoint"/>
              <mxPoint as="offset"/>
            </mxGeometry>
            <C4Relationship as="c4"/>
          </mxCell>
        </object>
        <object label="&lt;div style=&quot;text-align: left&quot;&gt;&lt;div style=&quot;text-align: center&quot;&gt;&lt;b&gt;Read open orders&lt;/b&gt;&lt;/div&gt;&lt;div style=&quot;text-align: center&quot;&gt;[tcp]&lt;/div&gt;&lt;/div&gt;" c4Type="Relationship" c4Description="Beschreibung" c4Technology="technology" id="Y7Dl6s04BHCU936dO34F-4">
          <mxCell style="edgeStyle=orthogonalEdgeStyle;rounded=0;html=1;entryX=0;entryY=0.5;jettySize=auto;orthogonalLoop=1;strokeColor=#A8A8A8;strokeWidth=2;fontColor=#000000;jumpStyle=none;dashed=1;exitX=0.5;exitY=1;exitDx=0;exitDy=0;entryDx=0;entryDy=0;" edge="1" parent="1" source="3FadowJ8ZwP5fmZhmTym-13" target="Y7Dl6s04BHCU936dO34F-2">
            <mxGeometry x="-0.4675" width="160" relative="1" as="geometry">
              <mxPoint x="310" y="880" as="sourcePoint"/>
              <mxPoint x="470" y="880" as="targetPoint"/>
              <mxPoint as="offset"/>
            </mxGeometry>
            <C4Relationship as="c4"/>
          </mxCell>
        </object>
        <object label="&lt;span&gt;Database&lt;/span&gt;&lt;div&gt;[Container:&amp;nbsp;mongodb]&lt;/div&gt;&lt;div&gt;&lt;br&gt;&lt;/div&gt;&lt;div&gt;storage orders sent to Alphapoint&lt;/div&gt;" placeholders="1" c4Type="Database" c4Technology="mongodb" c4Description="storage orders sent to Alphapoint" id="Y7Dl6s04BHCU936dO34F-2">
          <mxCell style="shape=cylinder;whiteSpace=wrap;html=1;boundedLbl=1;rounded=0;labelBackgroundColor=none;fillColor=#FFE599;fontSize=12;fontColor=#000000;align=center;strokeColor=#6c8ebf;" vertex="1" parent="1">
            <mxGeometry x="345.99999999999983" y="810" width="133" height="114" as="geometry"/>
            <C4Database as="c4"/>
          </mxCell>
        </object>
        <object label="&lt;div style=&quot;text-align: left&quot;&gt;&lt;div style=&quot;text-align: center&quot;&gt;&lt;b&gt;Send command&lt;/b&gt;&lt;/div&gt;&lt;div style=&quot;text-align: center&quot;&gt;[wss]&lt;/div&gt;&lt;/div&gt;" c4Type="Relationship" c4Description="Beschreibung" c4Technology="technology" id="3FadowJ8ZwP5fmZhmTym-22">
          <mxCell style="edgeStyle=orthogonalEdgeStyle;rounded=0;html=1;entryX=1;entryY=0.25;jettySize=auto;orthogonalLoop=1;strokeColor=#A8A8A8;strokeWidth=2;fontColor=#000000;jumpStyle=none;dashed=1;exitX=0.75;exitY=1;exitDx=0;exitDy=0;entryDx=0;entryDy=0;" parent="1" source="3FadowJ8ZwP5fmZhmTym-12" target="3FadowJ8ZwP5fmZhmTym-14" edge="1">
            <mxGeometry width="160" relative="1" as="geometry">
              <mxPoint x="490" y="870" as="sourcePoint"/>
              <mxPoint x="650" y="870" as="targetPoint"/>
            </mxGeometry>
            <C4Relationship as="c4"/>
          </mxCell>
        </object>
        <object label="&lt;div style=&quot;text-align: left&quot;&gt;&lt;div style=&quot;text-align: center&quot;&gt;&lt;b&gt;Subscribes market data&lt;/b&gt;&lt;/div&gt;&lt;div style=&quot;text-align: center&quot;&gt;[wss]&lt;/div&gt;&lt;/div&gt;" c4Type="Relationship" c4Description="Beschreibung" c4Technology="technology" id="3FadowJ8ZwP5fmZhmTym-23">
          <mxCell style="edgeStyle=orthogonalEdgeStyle;rounded=0;html=1;entryX=0;entryY=0.25;jettySize=auto;orthogonalLoop=1;strokeColor=#A8A8A8;strokeWidth=2;fontColor=#000000;jumpStyle=none;dashed=1;exitX=0.25;exitY=1;exitDx=0;exitDy=0;entryDx=0;entryDy=0;" parent="1" source="3FadowJ8ZwP5fmZhmTym-13" target="3FadowJ8ZwP5fmZhmTym-14" edge="1">
            <mxGeometry width="160" relative="1" as="geometry">
              <mxPoint x="20" y="1030" as="sourcePoint"/>
              <mxPoint x="180" y="1030" as="targetPoint"/>
            </mxGeometry>
            <C4Relationship as="c4"/>
          </mxCell>
        </object>
        <object label="&lt;div style=&quot;text-align: left&quot;&gt;&lt;div style=&quot;text-align: center&quot;&gt;&lt;b&gt;Storage triggers&lt;br&gt;and open orders&lt;/b&gt;&lt;/div&gt;&lt;div style=&quot;text-align: center&quot;&gt;[tcp]&lt;/div&gt;&lt;/div&gt;" c4Type="Relationship" c4Description="Beschreibung" c4Technology="technology" id="Y7Dl6s04BHCU936dO34F-5">
          <mxCell style="edgeStyle=orthogonalEdgeStyle;rounded=0;html=1;entryX=0;entryY=0.7;jettySize=auto;orthogonalLoop=1;strokeColor=#A8A8A8;strokeWidth=2;fontColor=#000000;jumpStyle=none;dashed=1;exitX=0.5;exitY=0;exitDx=0;exitDy=0;entryDx=0;entryDy=0;" edge="1" parent="1" source="3FadowJ8ZwP5fmZhmTym-13" target="3FadowJ8ZwP5fmZhmTym-27">
            <mxGeometry x="-0.1312" width="160" relative="1" as="geometry">
              <mxPoint x="340" y="640" as="sourcePoint"/>
              <mxPoint x="500" y="640" as="targetPoint"/>
              <mxPoint as="offset"/>
            </mxGeometry>
            <C4Relationship as="c4"/>
          </mxCell>
        </object>
        <object label="&lt;div style=&quot;text-align: left&quot;&gt;&lt;div style=&quot;text-align: center&quot;&gt;&lt;b&gt;Send messages&amp;nbsp;&lt;br&gt;matching market data and &lt;br&gt;margin trade users&lt;/b&gt;&lt;/div&gt;&lt;div style=&quot;text-align: center&quot;&gt;[ws]&lt;/div&gt;&lt;/div&gt;" c4Type="Relationship" c4Description="Beschreibung" c4Technology="technology" id="3FadowJ8ZwP5fmZhmTym-24">
          <mxCell style="rounded=0;html=1;entryX=0;entryY=0.75;jettySize=auto;orthogonalLoop=1;strokeColor=#A8A8A8;strokeWidth=2;fontColor=#000000;jumpStyle=none;dashed=1;entryDx=0;entryDy=0;edgeStyle=orthogonalEdgeStyle;" parent="1" target="3FadowJ8ZwP5fmZhmTym-7" edge="1">
            <mxGeometry x="-0.0955" width="160" relative="1" as="geometry">
              <mxPoint x="280" y="670" as="sourcePoint"/>
              <mxPoint x="333" y="563" as="targetPoint"/>
              <mxPoint as="offset"/>
              <Array as="points">
                <mxPoint x="280" y="360"/>
              </Array>
            </mxGeometry>
            <C4Relationship as="c4"/>
          </mxCell>
        </object>
        <object label="&lt;span&gt;Database&lt;/span&gt;&lt;div&gt;[Container:&amp;nbsp;redis]&lt;/div&gt;&lt;div&gt;&lt;br&gt;&lt;/div&gt;&lt;div&gt;storage online users, open orders and triggers&lt;/div&gt;" placeholders="1" c4Type="Database" c4Technology="redis" c4Description="storage online users, open orders and triggers" id="3FadowJ8ZwP5fmZhmTym-27">
          <mxCell style="shape=cylinder;whiteSpace=wrap;html=1;boundedLbl=1;rounded=0;labelBackgroundColor=none;fillColor=#FFE599;fontSize=12;fontColor=#000000;align=center;strokeColor=#6c8ebf;" parent="1" vertex="1">
            <mxGeometry x="345.9999999999999" y="480" width="133" height="114" as="geometry"/>
            <C4Database as="c4"/>
          </mxCell>
        </object>
        <object label="&lt;div style=&quot;text-align: left&quot;&gt;&lt;div style=&quot;text-align: center&quot;&gt;&lt;b&gt;Open/cancel orders&lt;/b&gt;&lt;/div&gt;&lt;div style=&quot;text-align: center&quot;&gt;[wss]&lt;/div&gt;&lt;/div&gt;" c4Type="Relationship" c4Description="Beschreibung" c4Technology="technology" id="3FadowJ8ZwP5fmZhmTym-19">
          <mxCell style="edgeStyle=none;rounded=0;html=1;entryX=0.75;entryY=0;jettySize=auto;orthogonalLoop=1;strokeColor=#A8A8A8;strokeWidth=2;fontColor=#000000;jumpStyle=none;dashed=1;exitX=0.75;exitY=1;exitDx=0;exitDy=0;entryDx=0;entryDy=0;" parent="1" source="3FadowJ8ZwP5fmZhmTym-9" target="3FadowJ8ZwP5fmZhmTym-7" edge="1">
            <mxGeometry x="-0.403" y="17" width="160" relative="1" as="geometry">
              <mxPoint x="310" y="250" as="sourcePoint"/>
              <mxPoint x="470" y="250" as="targetPoint"/>
              <mxPoint as="offset"/>
            </mxGeometry>
            <C4Relationship as="c4"/>
          </mxCell>
        </object>
        <object label="&lt;div style=&quot;text-align: left&quot;&gt;&lt;div style=&quot;text-align: center&quot;&gt;&lt;b&gt;Update open orders&lt;/b&gt;&lt;/div&gt;&lt;div style=&quot;text-align: center&quot;&gt;[wss]&lt;/div&gt;&lt;/div&gt;" c4Type="Relationship" c4Description="Beschreibung" c4Technology="technology" id="Y7Dl6s04BHCU936dO34F-6">
          <mxCell style="edgeStyle=none;rounded=0;html=1;entryX=0.25;entryY=1;jettySize=auto;orthogonalLoop=1;strokeColor=#A8A8A8;strokeWidth=2;fontColor=#000000;jumpStyle=none;dashed=1;exitX=0.25;exitY=0;exitDx=0;exitDy=0;entryDx=0;entryDy=0;" edge="1" parent="1" source="3FadowJ8ZwP5fmZhmTym-7" target="3FadowJ8ZwP5fmZhmTym-9">
            <mxGeometry x="-0.194" width="160" relative="1" as="geometry">
              <mxPoint x="260" y="260" as="sourcePoint"/>
              <mxPoint x="420" y="260" as="targetPoint"/>
              <mxPoint as="offset"/>
            </mxGeometry>
            <C4Relationship as="c4"/>
          </mxCell>
        </object>
      </root>
    </mxGraphModel>
  </diagram>
</mxfile>
